HIERARCHY
ROOT Character1_Hips
{
  OFFSET -322.694 89.6114 -298.735
  CHANNELS 6 Xposition Yposition Zposition Zrotation Xrotation Yrotation
  JOINT Character1_LeftUpLeg
  {
    OFFSET 8.91 -6.27 0
    CHANNELS 3 Zrotation Xrotation Yrotation
    JOINT Character1_LeftLeg
    {
      OFFSET 0 -44.8786 0
      CHANNELS 3 Zrotation Xrotation Yrotation
      JOINT Character1_LeftFoot
      {
        OFFSET 0 -40.701 0
        CHANNELS 3 Zrotation Xrotation Yrotation
        JOINT Character1_LeftToeBase
        {
          OFFSET 0 -6.26232 12.9547
          CHANNELS 3 Zrotation Xrotation Yrotation
          End Site
          {
            OFFSET 0 0 0
          }
        }
        JOINT FootL
        {
          OFFSET 0.33955 -3.96966 6.32777
          CHANNELS 3 Zrotation Xrotation Yrotation
          End Site
          {
            OFFSET 0 0 0
          }
        }
      }
      JOINT LegLBox
      {
        OFFSET 0.33955 -20.2705 0.090831
        CHANNELS 3 Zrotation Xrotation Yrotation
        End Site
        {
          OFFSET 0 0 0
        }
      }
    }
    JOINT UpLegLBox
    {
      OFFSET -0.339774 -23.0643 0.090831
      CHANNELS 3 Zrotation Xrotation Yrotation
      End Site
      {
        OFFSET 0 0 0
      }
    }
  }
  JOINT Character1_RightUpLeg
  {
    OFFSET -8.91 -6.27 0
    CHANNELS 3 Zrotation Xrotation Yrotation
    JOINT Character1_RightLeg
    {
      OFFSET 0 -44.8786 0.000439024
      CHANNELS 3 Zrotation Xrotation Yrotation
      JOINT Character1_RightFoot
      {
        OFFSET 0 -40.701 0
        CHANNELS 3 Zrotation Xrotation Yrotation
        JOINT Character1_RightToeBase
        {
          OFFSET 0 -6.26232 12.9547
          CHANNELS 3 Zrotation Xrotation Yrotation
          End Site
          {
            OFFSET 0 0 0
          }
        }
        JOINT FootRBox
        {
          OFFSET -0.339467 -3.96966 6.32736
          CHANNELS 3 Zrotation Xrotation Yrotation
          End Site
          {
            OFFSET 0 0 0
          }
        }
      }
      JOINT LegRBox
      {
        OFFSET -0.339996 -20.2705 0.090392
        CHANNELS 3 Zrotation Xrotation Yrotation
        End Site
        {
          OFFSET 0 0 0
        }
      }
    }
    JOINT UpLegRBox
    {
      OFFSET 0.340001 -23.0643 0.090831
      CHANNELS 3 Zrotation Xrotation Yrotation
      End Site
      {
        OFFSET 0 0 0
      }
    }
  }
  JOINT Character1_Spine
  {
    OFFSET 0 7 0
    CHANNELS 3 Zrotation Xrotation Yrotation
    JOINT Character1_Spine1
    {
      OFFSET 0 12.6667 0
      CHANNELS 3 Zrotation Xrotation Yrotation
      JOINT Character1_Spine2
      {
        OFFSET 0 12.6667 0
        CHANNELS 3 Zrotation Xrotation Yrotation
        JOINT Character1_LeftShoulder
        {
          OFFSET 7 14.2552 0
          CHANNELS 3 Zrotation Xrotation Yrotation
          JOINT Character1_LeftArm
          {
            OFFSET 10.7073 0 0
            CHANNELS 3 Zrotation Xrotation Yrotation
            JOINT Character1_LeftForeArm
            {
              OFFSET 27.3055 0 0
              CHANNELS 3 Zrotation Xrotation Yrotation
              JOINT Character1_LeftHand
              {
                OFFSET 26.6971 0 0
                CHANNELS 3 Zrotation Xrotation Yrotation
                JOINT Character1_LeftHandThumb1
                {
                  OFFSET 4.34876 -0.798503 4.28243
                  CHANNELS 3 Zrotation Xrotation Yrotation
                  JOINT Character1_LeftHandThumb2
                  {
                    OFFSET 2.51259 -0.536099 0.707454
                    CHANNELS 3 Zrotation Xrotation Yrotation
                    JOINT Character1_LeftHandThumb3
                    {
                      OFFSET 2.54314 0 0
                      CHANNELS 3 Zrotation Xrotation Yrotation
                      JOINT Character1_LeftHandThumb4
                      {
                        OFFSET 2.66675 0 0
                        CHANNELS 3 Zrotation Xrotation Yrotation
                        End Site
                        {
                          OFFSET 0 0 0
                        }
                      }
                    }
                  }
                }
                JOINT Character1_LeftHandIndex1
                {
                  OFFSET 8.82198 0.199729 3.47167
                  CHANNELS 3 Zrotation Xrotation Yrotation
                  JOINT Character1_LeftHandIndex2
                  {
                    OFFSET 4.22532 0 -0.00026266
                    CHANNELS 3 Zrotation Xrotation Yrotation
                    JOINT Character1_LeftHandIndex3
                    {
                      OFFSET 2.65394 0 -0.000165164
                      CHANNELS 3 Zrotation Xrotation Yrotation
                      JOINT Character1_LeftHandIndex4
                      {
                        OFFSET 1.95822 0 -0.000122166
                        CHANNELS 3 Zrotation Xrotation Yrotation
                        End Site
                        {
                          OFFSET 0 0 0
                        }
                      }
                    }
                  }
                }
                JOINT Character1_LeftHandMiddle1
                {
                  OFFSET 8.80988 0.50089 1.30468
                  CHANNELS 3 Zrotation Xrotation Yrotation
                  JOINT Character1_LeftHandMiddle2
                  {
                    OFFSET 4.86325 0 0
                    CHANNELS 3 Zrotation Xrotation Yrotation
                    JOINT Character1_LeftHandMiddle3
                    {
                      OFFSET 2.76524 0 0
                      CHANNELS 3 Zrotation Xrotation Yrotation
                      JOINT Character1_LeftHandMiddle4
                      {
                        OFFSET 2.00563 0 0
                        CHANNELS 3 Zrotation Xrotation Yrotation
                        End Site
                        {
                          OFFSET 0 0 0
                        }
                      }
                    }
                  }
                }
                JOINT Character1_LeftHandRing1
                {
                  OFFSET 8.89376 0.37992 -0.793159
                  CHANNELS 3 Zrotation Xrotation Yrotation
                  JOINT Character1_LeftHandRing2
                  {
                    OFFSET 4.53776 0 -0.000282138
                    CHANNELS 3 Zrotation Xrotation Yrotation
                    JOINT Character1_LeftHandRing3
                    {
                      OFFSET 2.30453 0 -0.000143448
                      CHANNELS 3 Zrotation Xrotation Yrotation
                      JOINT Character1_LeftHandRing4
                      {
                        OFFSET 1.92335 0 -0.00012044
                        CHANNELS 3 Zrotation Xrotation Yrotation
                        End Site
                        {
                          OFFSET 0 0 0
                        }
                      }
                    }
                  }
                }
                JOINT Character1_LeftHandPinky1
                {
                  OFFSET 8.88227 -0.313027 -2.49036
                  CHANNELS 3 Zrotation Xrotation Yrotation
                  JOINT Character1_LeftHandPinky2
                  {
                    OFFSET 3.0441 0 0
                    CHANNELS 3 Zrotation Xrotation Yrotation
                    JOINT Character1_LeftHandPinky3
                    {
                      OFFSET 1.9745 0 0
                      CHANNELS 3 Zrotation Xrotation Yrotation
                      JOINT Character1_LeftHandPinky4
                      {
                        OFFSET 1.66661 0 0
                        CHANNELS 3 Zrotation Xrotation Yrotation
                        End Site
                        {
                          OFFSET 0 0 0
                        }
                      }
                    }
                  }
                }
              }
            }
          }
        }
        JOINT Character1_RightShoulder
        {
          OFFSET -7 14.2552 0
          CHANNELS 3 Zrotation Xrotation Yrotation
          JOINT Character1_RightArm
          {
            OFFSET -10.7073 0 0
            CHANNELS 3 Zrotation Xrotation Yrotation
            JOINT Character1_RightForeArm
            {
              OFFSET -27.3056 0 0
              CHANNELS 3 Zrotation Xrotation Yrotation
              JOINT Character1_RightHand
              {
                OFFSET -26.697 0 0
                CHANNELS 3 Zrotation Xrotation Yrotation
                JOINT Character1_RightHandThumb1
                {
                  OFFSET -4.34838 -0.798498 4.28281
                  CHANNELS 3 Zrotation Xrotation Yrotation
                  JOINT Character1_RightHandThumb2
                  {
                    OFFSET -2.51253 -0.536099 0.707677
                    CHANNELS 3 Zrotation Xrotation Yrotation
                    JOINT Character1_RightHandThumb3
                    {
                      OFFSET -2.54159 0 0.0888203
                      CHANNELS 3 Zrotation Xrotation Yrotation
                      JOINT Character1_RightHandThumb4
                      {
                        OFFSET -2.66512 0 0.0931373
                        CHANNELS 3 Zrotation Xrotation Yrotation
                        End Site
                        {
                          OFFSET 0 0 0
                        }
                      }
                    }
                  }
                }
                JOINT Character1_RightHandIndex1
                {
                  OFFSET -8.82167 0.199734 3.47244
                  CHANNELS 3 Zrotation Xrotation Yrotation
                  JOINT Character1_RightHandIndex2
                  {
                    OFFSET -4.22532 0 0.0001146
                    CHANNELS 3 Zrotation Xrotation Yrotation
                    JOINT Character1_RightHandIndex3
                    {
                      OFFSET -2.65394 0 7.1964e-005
                      CHANNELS 3 Zrotation Xrotation Yrotation
                      JOINT Character1_RightHandIndex4
                      {
                        OFFSET -1.95822 0 5.30971e-005
                        CHANNELS 3 Zrotation Xrotation Yrotation
                        End Site
                        {
                          OFFSET 0 0 0
                        }
                      }
                    }
                  }
                }
                JOINT Character1_RightHandMiddle1
                {
                  OFFSET -8.80977 0.500893 1.30546
                  CHANNELS 3 Zrotation Xrotation Yrotation
                  JOINT Character1_RightHandMiddle2
                  {
                    OFFSET -4.86325 0 0.000131883
                    CHANNELS 3 Zrotation Xrotation Yrotation
                    JOINT Character1_RightHandMiddle3
                    {
                      OFFSET -2.76524 0 7.49843e-005
                      CHANNELS 3 Zrotation Xrotation Yrotation
                      JOINT Character1_RightHandMiddle4
                      {
                        OFFSET -2.00563 0 5.4389e-005
                        CHANNELS 3 Zrotation Xrotation Yrotation
                        End Site
                        {
                          OFFSET 0 0 0
                        }
                      }
                    }
                  }
                }
                JOINT Character1_RightHandRing1
                {
                  OFFSET -8.89383 0.37992 -0.792377
                  CHANNELS 3 Zrotation Xrotation Yrotation
                  JOINT Character1_RightHandRing2
                  {
                    OFFSET -4.53776 0 0.000123053
                    CHANNELS 3 Zrotation Xrotation Yrotation
                    JOINT Character1_RightHandRing3
                    {
                      OFFSET -2.30453 0 6.24935e-005
                      CHANNELS 3 Zrotation Xrotation Yrotation
                      JOINT Character1_RightHandRing4
                      {
                        OFFSET -1.92335 0 5.21553e-005
                        CHANNELS 3 Zrotation Xrotation Yrotation
                        End Site
                        {
                          OFFSET 0 0 0
                        }
                      }
                    }
                  }
                }
                JOINT Character1_RightHandPinky1
                {
                  OFFSET -8.8825 -0.313028 -2.48957
                  CHANNELS 3 Zrotation Xrotation Yrotation
                  JOINT Character1_RightHandPinky2
                  {
                    OFFSET -3.0478 0 8.26503e-005
                    CHANNELS 3 Zrotation Xrotation Yrotation
                    JOINT Character1_RightHandPinky3
                    {
                      OFFSET -1.9769 0 5.36133e-005
                      CHANNELS 3 Zrotation Xrotation Yrotation
                      JOINT Character1_RightHandPinky4
                      {
                        OFFSET -1.66864 0 4.52451e-005
                        CHANNELS 3 Zrotation Xrotation Yrotation
                        End Site
                        {
                          OFFSET 0 0 0
                        }
                      }
                    }
                  }
                }
              }
            }
          }
        }
        JOINT Character1_Neck
        {
          OFFSET 0 12.6667 0
          CHANNELS 3 Zrotation Xrotation Yrotation
          JOINT Character1_Head
          {
            OFFSET 0 20 0
            CHANNELS 3 Zrotation Xrotation Yrotation
            End Site
            {
              OFFSET 0 0 0
            }
          }
        }
      }
    }
  }
  JOINT TorsoBox
  {
    OFFSET 0 6.37996 0.149191
    CHANNELS 3 Zrotation Xrotation Yrotation
    End Site
    {
      OFFSET 0 0 0
    }
  }
}
MOTION
Frames:	4
Frame Time:	0.00833333
24.7063 119.806 22.4265 -4.16916 9.11337 20.6343 57.2455 -58.0778 64.1541 0.000879454 48.2934 -0.294237 1.43553 26.3739 4.5702 -0.0803268 -2.99817 0.00961318 -1.89534e-015 -9.02254e-016 -3.79067e-015 9.47669e-016 -2.63201e-015 7.58135e-015 -2.94811e-015 0 -0 -24.7964 13.7511 0.234672 0.0155097 80.7 -1.62578 10.1126 34.4577 -11.9486 -0.0219672 0.778739 0.01776 3.02372e-019 -3.60901e-015 0.00480039 -8.16248e-033 -6.58002e-016 -7.10751e-016 -2.94811e-015 1.24311e-015 -2.94811e-015 0.733004 3.4352 8.13988 -5.27108 4.32911 13.0487 -7.2885 1.90544 6.30367 4.66878 9.08016 2.80925 -47.9214 20.2213 24.6187 0.0116733 0.0273027 -50.3659 13.9922 -8.11473 2.67342 -3.09563e-005 2.91282e-006 6.16702e-006 -0.000269899 -6.79157e-006 1.1955e-006 0.000294877 9.53572e-006 2.28981e-006 2.86503e-005 8.21623e-006 -7.65631e-006 -0.000310081 1.95321e-006 -2 -0.000262051 -3.34298e-006 -2.16079e-006 1.4293e-005 3.45138e-006 -5.49863e-006 1.46586e-005 4.76485e-006 1.41551e-006 -1.29561e-005 -5.48372e-006 -0.00356686 3.29426e-005 2.17436e-005 4.90853e-006 -5.4399e-006 -9.01696e-006 4.26685e-006 2.32422e-005 8.83368e-006 -2.46172e-006 -5.00407e-006 -2.59673e-006 -0.00356008 -1.1954e-005 -9.3982e-007 -3.30212e-006 1.87156e-005 3.46783e-006 -3.46798e-007 1.7161e-005 8.17875e-006 -7.23579e-006 0.000751425 -5.78082e-006 2.3401e-005 -1.56726e-005 3.28765e-006 4.84124e-006 -1.54136e-005 4.15896e-006 9.48129e-006 3.31187e-005 4.85508e-006 -9.06836e-006 -15.3084 -7.4584 13.0104 34.8108 16.5573 23.7713 -0.0263804 1.7318e-005 106.483 6.67635 14.7595 -12.3499 -6.35645e-006 -5.04465e-005 -6.23634e-006 -0.000621918 3.9218e-005 -5.89848e-006 0.000209025 1.2455e-006 2.46474e-005 -2.91579e-006 -2.88917e-005 -2.04864e-005 -2.12431e-005 -2.33081e-005 -2.00006 7.90778e-005 -7.10401e-006 -7.10599e-006 2.00008e-005 1.09924e-005 5.50819e-006 -2.36185e-005 -3.34717e-005 -2.59804e-006 -1.25941e-005 -1.00207e-005 -2.00006 7.84871e-006 -3.01355e-005 -9.07109e-007 -2.85225e-007 1.3731e-005 5.74661e-006 -4.01957e-006 -3.34271e-005 -1.04659e-005 -3.49127e-006 -2.11286e-005 -2.00007 0.000104606 2.80982e-005 2.15042e-005 3.60858e-006 1.18708e-006 -3.3133e-006 -2.31247e-005 -3.011e-005 -1.14195e-005 0.00123052 -7.34759e-005 -2.00008 0.000627114 2.2746e-005 8.62951e-006 9.83929e-006 -5.71598e-006 5.03136e-006 -1.61837e-005 7.28716e-006 -1.21348e-005 -4.44066 6.61981 1.97827 1.01434 -11.4525 1.34712 -5.14338e-016 0 -0 
27.8856 119.377 25.2018 -4.594 8.70222 20.0726 54.9511 -56.4295 61.8118 0.000371213 46.0137 -0.289006 1.29861 26.785 4.37014 -0.0787042 -2.8874 0.00960404 -9.47669e-016 2.70676e-015 -0 -9.47669e-016 -2.63201e-015 7.58135e-015 -0 -4.97245e-015 -0 -25.3395 13.6659 0.973011 0.0192583 82.2526 -1.69642 10.0389 34.2532 -11.7989 -0.0180626 0.638268 0.0176754 1.89564e-015 -3.60901e-015 0.00480039 -3.79067e-015 -2.63201e-015 4.26451e-015 -1.47406e-015 7.45868e-015 -2.94811e-015 1.07373 3.29601 8.13156 -4.84383 4.32134 12.9761 -7.13147 1.86542 6.3566 4.55891 9.03818 3.00301 -47.7894 20.0066 24.6216 0.0103429 0.0268616 -50.2287 13.9676 -8.38159 2.70124 -3.09563e-005 2.91282e-006 6.16702e-006 -0.000269899 -6.79157e-006 1.1955e-006 0.000294877 9.53572e-006 2.28981e-006 2.86503e-005 8.21623e-006 -7.65631e-006 -0.000310081 1.95321e-006 -2 -0.000262051 -3.34298e-006 -2.16079e-006 1.4293e-005 3.45138e-006 -5.49863e-006 1.46586e-005 4.76485e-006 1.41551e-006 -1.29561e-005 -5.48372e-006 -0.00356686 3.29426e-005 2.17436e-005 4.90853e-006 -5.4399e-006 -9.01696e-006 4.26685e-006 2.32422e-005 8.83368e-006 -2.46172e-006 -5.00407e-006 -2.59673e-006 -0.00356008 -1.1954e-005 -9.3982e-007 -3.30212e-006 1.87156e-005 3.46783e-006 -3.46798e-007 1.7161e-005 8.17875e-006 -7.23579e-006 0.000751425 -5.78082e-006 2.3401e-005 -1.56726e-005 3.28765e-006 4.84124e-006 -1.54136e-005 4.15896e-006 9.48129e-006 3.31187e-005 4.85508e-006 -9.06836e-006 -15.2896 -6.93276 12.6154 34.5549 17.6113 23.4599 -0.0259197 1.65938e-005 105.776 5.97888 15.734 -12.0555 -6.35645e-006 -5.04465e-005 -6.23634e-006 -0.000621918 3.9218e-005 -5.89848e-006 0.000209025 1.2455e-006 2.46474e-005 -2.91579e-006 -2.88917e-005 -2.04864e-005 -2.12431e-005 -2.33081e-005 -2.00006 7.90778e-005 -7.10401e-006 -7.10599e-006 2.00008e-005 1.09924e-005 5.50819e-006 -2.36185e-005 -3.34717e-005 -2.59804e-006 -1.25941e-005 -1.00207e-005 -2.00006 7.84871e-006 -3.01355e-005 -9.07109e-007 -2.85225e-007 1.3731e-005 5.74661e-006 -4.01957e-006 -3.34271e-005 -1.04659e-005 -3.49127e-006 -2.11286e-005 -2.00007 0.000104606 2.80982e-005 2.15042e-005 3.60858e-006 1.18708e-006 -3.3133e-006 -2.31247e-005 -3.011e-005 -1.14195e-005 0.00123052 -7.34759e-005 -2.00008 0.000627114 2.2746e-005 8.62951e-006 9.83929e-006 -5.71598e-006 5.03136e-006 -1.61837e-005 7.28716e-006 -1.21348e-005 -4.89125 6.72255 2.20839 1.12581 -11.2973 1.67802 -1.02868e-015 -2.92605e-015 2.05735e-015 
31.0791 118.949 27.9762 -5.02705 8.29975 19.5116 52.6278 -54.79 59.441 -0.00133567 43.7262 -0.2804 1.16895 27.1982 4.17236 -0.0768064 -2.77663 0.00951646 1.19386e-031 -1.80451e-015 3.79067e-015 -3.79067e-015 0 -1.1372e-014 5.89622e-015 -7.45868e-015 2.94811e-015 -25.8874 13.5868 1.71596 0.0247735 83.7909 -1.76627 9.97446 34.0602 -11.6518 -0.0147561 0.517641 0.0175594 -5.68601e-015 0 0.00480039 3.79067e-015 -1.316e-015 2.36917e-016 -1.47406e-015 -1.24311e-015 2.94811e-015 1.41445 3.15685 8.12334 -4.41655 4.31394 12.9036 -6.97439 1.82547 6.40954 4.44938 8.99613 3.19671 -47.6352 19.8307 24.5974 0.00904668 0.0263836 -50.0918 13.9435 -8.64852 2.72893 -3.09563e-005 2.91282e-006 6.16702e-006 -0.000269899 -6.79157e-006 1.1955e-006 0.000294877 9.53572e-006 2.28981e-006 2.86503e-005 8.21623e-006 -7.65631e-006 -0.000310081 1.95321e-006 -2 -0.000262051 -3.34298e-006 -2.16079e-006 1.4293e-005 3.45138e-006 -5.49863e-006 1.46586e-005 4.76485e-006 1.41551e-006 -1.29561e-005 -5.48372e-006 -0.00356686 3.29426e-005 2.17436e-005 4.90853e-006 -5.4399e-006 -9.01696e-006 4.26685e-006 2.32422e-005 8.83368e-006 -2.46172e-006 -5.00407e-006 -2.59673e-006 -0.00356008 -1.1954e-005 -9.3982e-007 -3.30212e-006 1.87156e-005 3.46783e-006 -3.46798e-007 1.7161e-005 8.17875e-006 -7.23579e-006 0.000751425 -5.78082e-006 2.3401e-005 -1.56726e-005 3.28765e-006 4.84124e-006 -1.54136e-005 4.15896e-006 9.48129e-006 3.31187e-005 4.85508e-006 -9.06836e-006 -15.2634 -6.40513 12.2225 34.2678 18.6983 23.0863 -0.0249493 1.58692e-005 105.07 5.26599 16.7071 -11.7586 -6.35645e-006 -5.04465e-005 -6.23634e-006 -0.000621918 3.9218e-005 -5.89848e-006 0.000209025 1.2455e-006 2.46474e-005 -2.91579e-006 -2.88917e-005 -2.04864e-005 -2.12431e-005 -2.33081e-005 -2.00006 7.90778e-005 -7.10401e-006 -7.10599e-006 2.00008e-005 1.09924e-005 5.50819e-006 -2.36185e-005 -3.34717e-005 -2.59804e-006 -1.25941e-005 -1.00207e-005 -2.00006 7.84871e-006 -3.01355e-005 -9.07109e-007 -2.85225e-007 1.3731e-005 5.74661e-006 -4.01957e-006 -3.34271e-005 -1.04659e-005 -3.49127e-006 -2.11286e-005 -2.00007 0.000104606 2.80982e-005 2.15042e-005 3.60858e-006 1.18708e-006 -3.3133e-006 -2.31247e-005 -3.011e-005 -1.14195e-005 0.00123052 -7.34759e-005 -2.00008 0.000627114 2.2746e-005 8.62951e-006 9.83929e-006 -5.71598e-006 5.03136e-006 -1.61837e-005 7.28716e-006 -1.21348e-005 -5.34235 6.82424 2.43825 1.23729 -11.142 2.0089 -1.02868e-015 0 -2.05735e-015 
34.2868 118.521 30.749 -5.46817 7.90611 18.9513 50.2746 -53.1592 57.0416 0.00225064 41.4298 -0.274957 1.04662 27.6132 3.97652 -0.0737462 -2.66583 0.00934775 -3.58157e-031 -2.70676e-015 -7.58135e-015 -9.47669e-016 3.94801e-015 -3.79067e-015 0 2.48623e-015 -0 -26.4401 13.5117 2.46406 0.033955 85.316 -1.83703 9.91917 33.8793 -11.5071 -0.0116097 0.400484 0.0174173 -9.47699e-015 3.60901e-015 0.00480039 0 0 -2.84301e-015 -6.63325e-015 -3.72934e-015 -0 1.75517 3.01769 8.11508 -3.98928 4.30689 12.8312 -6.81727 1.78559 6.46248 4.34018 8.954 3.39038 -47.424 19.6865 24.5365 0.00778833 0.0258685 -49.9542 13.9201 -8.91554 2.75651 -3.09563e-005 2.91282e-006 6.16702e-006 -0.000269899 -6.79157e-006 1.1955e-006 0.000294877 9.53572e-006 2.28981e-006 2.86503e-005 8.21623e-006 -7.65631e-006 -0.000310081 1.95321e-006 -2 -0.000262051 -3.34298e-006 -2.16079e-006 1.4293e-005 3.45138e-006 -5.49863e-006 1.46586e-005 4.76485e-006 1.41551e-006 -1.29561e-005 -5.48372e-006 -0.00356686 3.29426e-005 2.17436e-005 4.90853e-006 -5.4399e-006 -9.01696e-006 4.26685e-006 2.32422e-005 8.83368e-006 -2.46172e-006 -5.00407e-006 -2.59673e-006 -0.00356008 -1.1954e-005 -9.3982e-007 -3.30212e-006 1.87156e-005 3.46783e-006 -3.46798e-007 1.7161e-005 8.17875e-006 -7.23579e-006 0.000751425 -5.78082e-006 2.3401e-005 -1.56726e-005 3.28765e-006 4.84124e-006 -1.54136e-005 4.15896e-006 9.48129e-006 3.31187e-005 4.85508e-006 -9.06836e-006 -15.2296 -5.87561 11.8315 34.0124 19.8727 22.5944 -0.0235525 1.51412e-005 104.364 4.53754 17.6786 -11.4586 -6.35645e-006 -5.04465e-005 -6.23634e-006 -0.000621918 3.9218e-005 -5.89848e-006 0.000209025 1.2455e-006 2.46474e-005 -2.91579e-006 -2.88917e-005 -2.04864e-005 -2.12431e-005 -2.33081e-005 -2.00006 7.90778e-005 -7.10401e-006 -7.10599e-006 2.00008e-005 1.09924e-005 5.50819e-006 -2.36185e-005 -3.34717e-005 -2.59804e-006 -1.25941e-005 -1.00207e-005 -2.00006 7.84871e-006 -3.01355e-005 -9.07109e-007 -2.85225e-007 1.3731e-005 5.74661e-006 -4.01957e-006 -3.34271e-005 -1.04659e-005 -3.49127e-006 -2.11286e-005 -2.00007 0.000104606 2.80982e-005 2.15042e-005 3.60858e-006 1.18708e-006 -3.3133e-006 -2.31247e-005 -3.011e-005 -1.14195e-005 0.00123052 -7.34759e-005 -2.00008 0.000627114 2.2746e-005 8.62951e-006 9.83929e-006 -5.71598e-006 5.03136e-006 -1.61837e-005 7.28716e-006 -1.21348e-005 -5.79408 6.92469 2.66799 1.34878 -10.9868 2.33979 5.14338e-016 9.7535e-016 -2.05735e-015 
